<svg viewBox="0 0 900 500" xmlns="http://www.w3.org/2000/svg" font-family="-apple-system,BlinkMacSystemFont,'Segoe UI',sans-serif">
  <defs>
    <pattern id="dots" x="0" y="0" width="28" height="28" patternUnits="userSpaceOnUse">
      <circle cx="1" cy="1" r="1" fill="#8b5cf6" opacity="0.28"/>
    </pattern>
    <radialGradient id="glow1" cx="30%" cy="0%" r="60%">
      <stop offset="0%" stop-color="#4a1d96" stop-opacity="0.45"/>
      <stop offset="100%" stop-color="#16162a" stop-opacity="0"/>
    </radialGradient>
    <radialGradient id="glow2" cx="80%" cy="100%" r="50%">
      <stop offset="0%" stop-color="#1e3a5f" stop-opacity="0.35"/>
      <stop offset="100%" stop-color="#16162a" stop-opacity="0"/>
    </radialGradient>
    <linearGradient id="accentGrad" x1="0%" y1="0%" x2="100%" y2="100%">
      <stop offset="0%" stop-color="#8b5cf6"/>
      <stop offset="100%" stop-color="#6366f1"/>
    </linearGradient>
    <filter id="shadow" x="-10%" y="-10%" width="120%" height="120%">
      <feDropShadow dx="0" dy="4" stdDeviation="8" flood-color="#000000" flood-opacity="0.4"/>
    </filter>
  </defs>

  <!-- BG -->
  <rect width="900" height="500" rx="20" fill="#16162a"/>
  <rect width="900" height="500" rx="20" fill="url(#dots)"/>
  <rect width="900" height="500" rx="20" fill="url(#glow1)"/>
  <rect width="900" height="500" rx="20" fill="url(#glow2)"/>

  <!-- Top bar chrome -->
  <rect x="0" y="0" width="900" height="32" rx="0" fill="rgba(12,12,24,0.8)"/>
  <rect x="0" y="0" width="900" height="1" fill="rgba(139,92,246,0.0)"/>
  <rect x="0" y="31" width="900" height="1" fill="rgba(139,92,246,0.2)"/>
  <circle cx="16" cy="16" r="5" fill="#ff5f57"/>
  <circle cx="32" cy="16" r="5" fill="#ffbd2e"/>
  <circle cx="48" cy="16" r="5" fill="#28c940"/>
  <!-- URL bar mock -->
  <rect x="320" y="7" width="260" height="18" rx="9" fill="rgba(255,255,255,0.06)" stroke="rgba(255,255,255,0.1)" stroke-width="0.5"/>
  <text x="450" y="20" fill="#555577" font-size="9" text-anchor="middle">New Tab — GridWidget</text>

  <!-- ======== ROW 1 ======== -->

  <!-- Clock -->
  <rect x="16" y="48" width="178" height="115" rx="14" fill="rgba(22,22,48,0.85)" stroke="rgba(139,92,246,0.28)" stroke-width="1" filter="url(#shadow)"/>
  <text x="30" y="69" fill="rgba(139,92,246,0.75)" font-size="8.5" font-weight="700" letter-spacing="0.07em">🕐  CLOCK</text>
  <text x="30" y="107" fill="#f0f0ff" font-size="33" font-weight="800" letter-spacing="-0.02em">09:41</text>
  <text x="30" y="124" fill="#8888aa" font-size="11">Tuesday, June 24</text>
  <text x="30" y="154" fill="rgba(139,92,246,0.5)" font-size="9">Asia/Seoul</text>

  <!-- Weather -->
  <rect x="206" y="48" width="158" height="115" rx="14" fill="rgba(22,22,48,0.85)" stroke="rgba(139,92,246,0.28)" stroke-width="1" filter="url(#shadow)"/>
  <text x="220" y="69" fill="rgba(139,92,246,0.75)" font-size="8.5" font-weight="700" letter-spacing="0.07em">☀️  WEATHER</text>
  <text x="220" y="105" fill="#f0f0ff" font-size="34" font-weight="800">24°</text>
  <text x="220" y="123" fill="#aaaacc" font-size="11">Seoul  ·  Sunny</text>
  <text x="220" y="140" fill="#6666aa" font-size="10">↑ 28°   ↓ 19°</text>

  <!-- Focus Timer -->
  <rect x="376" y="48" width="158" height="115" rx="14" fill="rgba(22,22,48,0.85)" stroke="rgba(139,92,246,0.28)" stroke-width="1" filter="url(#shadow)"/>
  <text x="390" y="69" fill="rgba(139,92,246,0.75)" font-size="8.5" font-weight="700" letter-spacing="0.07em">🎯  FOCUS TIMER</text>
  <circle cx="455" cy="112" r="32" fill="none" stroke="rgba(255,255,255,0.07)" stroke-width="5.5"/>
  <circle cx="455" cy="112" r="32" fill="none" stroke="url(#accentGrad)" stroke-width="5.5" stroke-dasharray="201" stroke-dashoffset="55" stroke-linecap="round" transform="rotate(-90 455 112)"/>
  <text x="455" y="116" fill="#e0e0ff" font-size="13" font-weight="800" text-anchor="middle">18:32</text>
  <text x="455" y="131" fill="#7770aa" font-size="9" text-anchor="middle">Focus</text>

  <!-- Stocks -->
  <rect x="546" y="48" width="165" height="115" rx="14" fill="rgba(22,22,48,0.85)" stroke="rgba(139,92,246,0.28)" stroke-width="1" filter="url(#shadow)"/>
  <text x="560" y="69" fill="rgba(139,92,246,0.75)" font-size="8.5" font-weight="700" letter-spacing="0.07em">📈  STOCKS</text>
  <text x="560" y="91" fill="#e8e8ff" font-size="13" font-weight="700">AAPL</text>
  <text x="697" y="91" fill="#34d399" font-size="11.5" font-weight="600" text-anchor="end">+1.2%</text>
  <text x="560" y="111" fill="#e8e8ff" font-size="13" font-weight="700">NVDA</text>
  <text x="697" y="111" fill="#34d399" font-size="11.5" font-weight="600" text-anchor="end">+3.4%</text>
  <text x="560" y="131" fill="#e8e8ff" font-size="13" font-weight="700">TSLA</text>
  <text x="697" y="131" fill="#f87171" font-size="11.5" font-weight="600" text-anchor="end">-0.8%</text>
  <text x="560" y="152" fill="#444466" font-size="9">Updated 2 min ago  ↺</text>

  <!-- Search -->
  <rect x="723" y="48" width="161" height="115" rx="14" fill="rgba(22,22,48,0.85)" stroke="rgba(139,92,246,0.28)" stroke-width="1" filter="url(#shadow)"/>
  <text x="737" y="69" fill="rgba(139,92,246,0.75)" font-size="8.5" font-weight="700" letter-spacing="0.07em">🔍  SEARCH</text>
  <rect x="737" y="76" width="133" height="26" rx="8" fill="rgba(255,255,255,0.05)" stroke="rgba(139,92,246,0.3)" stroke-width="0.8"/>
  <text x="751" y="93" fill="#444466" font-size="10">Search Google…</text>
  <rect x="737" y="110" width="38" height="20" rx="6" fill="rgba(139,92,246,0.3)"/>
  <text x="756" y="124" fill="#c4b5fd" font-size="9" font-weight="700" text-anchor="middle">G</text>
  <rect x="781" y="110" width="38" height="20" rx="6" fill="rgba(255,255,255,0.05)"/>
  <text x="800" y="124" fill="#666688" font-size="9" font-weight="600" text-anchor="middle">Nv</text>
  <rect x="825" y="110" width="38" height="20" rx="6" fill="rgba(255,255,255,0.05)"/>
  <text x="844" y="124" fill="#666688" font-size="9" font-weight="600" text-anchor="middle">YT</text>

  <!-- ======== ROW 2 ======== -->

  <!-- Calendar -->
  <rect x="16" y="176" width="285" height="138" rx="14" fill="rgba(22,22,48,0.85)" stroke="rgba(139,92,246,0.28)" stroke-width="1" filter="url(#shadow)"/>
  <text x="30" y="197" fill="rgba(139,92,246,0.75)" font-size="8.5" font-weight="700" letter-spacing="0.07em">📅  CALENDAR</text>
  <rect x="30" y="204" width="257" height="27" rx="6" fill="rgba(139,92,246,0.14)"/>
  <rect x="30" y="204" width="3" height="27" rx="1.5" fill="#8b5cf6"/>
  <text x="40" y="218" fill="#c4b5fd" font-size="11" font-weight="600">10:00</text>
  <text x="40" y="229" fill="#9090bb" font-size="10">Team standup</text>
  <rect x="30" y="237" width="257" height="27" rx="6" fill="rgba(99,102,241,0.12)"/>
  <rect x="30" y="237" width="3" height="27" rx="1.5" fill="#6366f1"/>
  <text x="40" y="251" fill="#a5b4fc" font-size="11" font-weight="600">14:30</text>
  <text x="40" y="262" fill="#9090bb" font-size="10">Design review</text>
  <rect x="30" y="270" width="257" height="27" rx="6" fill="rgba(52,211,153,0.10)"/>
  <rect x="30" y="270" width="3" height="27" rx="1.5" fill="#34d399"/>
  <text x="40" y="284" fill="#6ee7b7" font-size="11" font-weight="600">16:00</text>
  <text x="40" y="295" fill="#9090bb" font-size="10">1:1 with manager</text>

  <!-- Habits -->
  <rect x="313" y="176" width="200" height="138" rx="14" fill="rgba(22,22,48,0.85)" stroke="rgba(139,92,246,0.28)" stroke-width="1" filter="url(#shadow)"/>
  <text x="327" y="197" fill="rgba(139,92,246,0.75)" font-size="8.5" font-weight="700" letter-spacing="0.07em">💪  HABITS</text>
  <text x="327" y="215" fill="#aaaacc" font-size="10.5">🏃 Running</text>
  <text x="499" y="215" fill="#34d399" font-size="9.5" font-weight="700" text-anchor="end">7d 🔥</text>
  <rect x="327" y="219" width="15" height="15" rx="3.5" fill="#34d399" opacity="0.9"/>
  <rect x="346" y="219" width="15" height="15" rx="3.5" fill="#34d399" opacity="0.9"/>
  <rect x="365" y="219" width="15" height="15" rx="3.5" fill="#34d399" opacity="0.9"/>
  <rect x="384" y="219" width="15" height="15" rx="3.5" fill="#34d399" opacity="0.9"/>
  <rect x="403" y="219" width="15" height="15" rx="3.5" fill="#34d399" opacity="0.9"/>
  <rect x="422" y="219" width="15" height="15" rx="3.5" fill="#34d399" opacity="0.9"/>
  <rect x="441" y="219" width="15" height="15" rx="3.5" fill="#34d399" opacity="0.9"/>
  <text x="327" y="252" fill="#aaaacc" font-size="10.5">📖 Reading</text>
  <text x="499" y="252" fill="#60a5fa" font-size="9.5" font-weight="700" text-anchor="end">4d</text>
  <rect x="327" y="256" width="15" height="15" rx="3.5" fill="#60a5fa" opacity="0.9"/>
  <rect x="346" y="256" width="15" height="15" rx="3.5" fill="#60a5fa" opacity="0.9"/>
  <rect x="365" y="256" width="15" height="15" rx="3.5" fill="#60a5fa" opacity="0.9"/>
  <rect x="384" y="256" width="15" height="15" rx="3.5" fill="#60a5fa" opacity="0.9"/>
  <rect x="403" y="256" width="15" height="15" rx="3.5" fill="rgba(255,255,255,0.07)"/>
  <rect x="422" y="256" width="15" height="15" rx="3.5" fill="rgba(255,255,255,0.07)"/>
  <rect x="441" y="256" width="15" height="15" rx="3.5" fill="rgba(255,255,255,0.07)"/>
  <text x="327" y="289" fill="#aaaacc" font-size="10.5">💧 Water</text>
  <text x="499" y="289" fill="#f472b6" font-size="9.5" font-weight="700" text-anchor="end">3d</text>
  <rect x="327" y="293" width="15" height="15" rx="3.5" fill="#f472b6" opacity="0.9"/>
  <rect x="346" y="293" width="15" height="15" rx="3.5" fill="#f472b6" opacity="0.9"/>
  <rect x="365" y="293" width="15" height="15" rx="3.5" fill="#f472b6" opacity="0.9"/>
  <rect x="384" y="293" width="15" height="15" rx="3.5" fill="rgba(255,255,255,0.07)"/>
  <rect x="403" y="293" width="15" height="15" rx="3.5" fill="rgba(255,255,255,0.07)"/>
  <rect x="422" y="293" width="15" height="15" rx="3.5" fill="rgba(255,255,255,0.07)"/>
  <rect x="441" y="293" width="15" height="15" rx="3.5" fill="rgba(255,255,255,0.07)"/>

  <!-- Memo -->
  <rect x="525" y="176" width="185" height="138" rx="14" fill="rgba(22,22,48,0.85)" stroke="rgba(139,92,246,0.28)" stroke-width="1" filter="url(#shadow)"/>
  <text x="539" y="197" fill="rgba(139,92,246,0.75)" font-size="8.5" font-weight="700" letter-spacing="0.07em">📝  MEMO</text>
  <text x="539" y="215" fill="#ccccee" font-size="11" font-weight="500">Meeting agenda:</text>
  <text x="539" y="232" fill="#9090bb" font-size="10">• Q3 roadmap review</text>
  <text x="539" y="248" fill="#9090bb" font-size="10">• Design system update</text>
  <text x="539" y="264" fill="#9090bb" font-size="10">• Release v2.1 plan</text>
  <text x="539" y="280" fill="#9090bb" font-size="10">• Team retrospective</text>
  <text x="539" y="305" fill="#444466" font-size="9">Saved · syncs to Drive</text>

  <!-- Quick Links -->
  <rect x="722" y="176" width="162" height="138" rx="14" fill="rgba(22,22,48,0.85)" stroke="rgba(139,92,246,0.28)" stroke-width="1" filter="url(#shadow)"/>
  <text x="736" y="197" fill="rgba(139,92,246,0.75)" font-size="8.5" font-weight="700" letter-spacing="0.07em">🔖  QUICK LINKS</text>
  <!-- 2x3 grid of app icons -->
  <rect x="736" y="205" width="36" height="36" rx="10" fill="rgba(255,255,255,0.06)"/>
  <text x="754" y="228" font-size="16" text-anchor="middle">🐙</text>
  <rect x="780" y="205" width="36" height="36" rx="10" fill="rgba(255,255,255,0.06)"/>
  <text x="798" y="228" font-size="16" text-anchor="middle">🎨</text>
  <rect x="824" y="205" width="36" height="36" rx="10" fill="rgba(255,255,255,0.06)"/>
  <text x="842" y="228" font-size="16" text-anchor="middle">📧</text>
  <rect x="736" y="249" width="36" height="36" rx="10" fill="rgba(255,255,255,0.06)"/>
  <text x="754" y="272" font-size="16" text-anchor="middle">📄</text>
  <rect x="780" y="249" width="36" height="36" rx="10" fill="rgba(255,255,255,0.06)"/>
  <text x="798" y="272" font-size="16" text-anchor="middle">💬</text>
  <rect x="824" y="249" width="36" height="36" rx="10" fill="rgba(255,255,255,0.06)"/>
  <text x="842" y="272" font-size="16" text-anchor="middle">🎵</text>
  <rect x="736" y="293" width="36" height="36" rx="10" fill="rgba(255,255,255,0.06)"/>
  <text x="754" y="316" font-size="16" text-anchor="middle">🗓️</text>
  <rect x="780" y="293" width="36" height="36" rx="10" fill="rgba(255,255,255,0.06)"/>
  <text x="798" y="316" font-size="16" text-anchor="middle">📊</text>
  <rect x="824" y="293" width="36" height="36" rx="10" fill="rgba(255,255,255,0.06)"/>
  <text x="842" y="316" font-size="16" text-anchor="middle">🔗</text>

  <!-- ======== ROW 3 ======== -->

  <!-- Daily Quote -->
  <rect x="16" y="327" width="295" height="110" rx="14" fill="rgba(22,22,48,0.85)" stroke="rgba(139,92,246,0.28)" stroke-width="1" filter="url(#shadow)"/>
  <text x="30" y="348" fill="rgba(139,92,246,0.75)" font-size="8.5" font-weight="700" letter-spacing="0.07em">💬  DAILY QUOTE</text>
  <text x="30" y="370" fill="#c4b5fd" font-size="11.5" font-style="italic">"The best way to predict the</text>
  <text x="30" y="386" fill="#c4b5fd" font-size="11.5" font-style="italic"> future is to create it."</text>
  <text x="30" y="406" fill="#666688" font-size="10">— Alan Kay</text>
  <rect x="30" y="418" width="50" height="12" rx="6" fill="rgba(139,92,246,0.25)"/>
  <text x="55" y="428" fill="#c4b5fd" font-size="8" text-anchor="middle">Inspire</text>

  <!-- World Clock -->
  <rect x="323" y="327" width="235" height="110" rx="14" fill="rgba(22,22,48,0.85)" stroke="rgba(139,92,246,0.28)" stroke-width="1" filter="url(#shadow)"/>
  <text x="337" y="348" fill="rgba(139,92,246,0.75)" font-size="8.5" font-weight="700" letter-spacing="0.07em">🌍  WORLD CLOCK</text>
  <text x="337" y="371" fill="#aaaacc" font-size="10.5">Seoul</text>
  <text x="544" y="371" fill="#e0e0ff" font-size="13" font-weight="700" text-anchor="end">09:41</text>
  <text x="337" y="395" fill="#aaaacc" font-size="10.5">New York</text>
  <text x="544" y="395" fill="#e0e0ff" font-size="13" font-weight="700" text-anchor="end">20:41</text>
  <text x="337" y="419" fill="#aaaacc" font-size="10.5">London</text>
  <text x="544" y="419" fill="#e0e0ff" font-size="13" font-weight="700" text-anchor="end">01:41</text>

  <!-- Countdown -->
  <rect x="570" y="327" width="165" height="110" rx="14" fill="rgba(22,22,48,0.85)" stroke="rgba(139,92,246,0.28)" stroke-width="1" filter="url(#shadow)"/>
  <text x="584" y="348" fill="rgba(139,92,246,0.75)" font-size="8.5" font-weight="700" letter-spacing="0.07em">⏳  COUNTDOWN</text>
  <text x="652" y="395" fill="#f0f0ff" font-size="38" font-weight="800" text-anchor="middle" letter-spacing="-0.02em">D-7</text>
  <text x="652" y="415" fill="#7770aa" font-size="9.5" text-anchor="middle">Summer vacation</text>
  <text x="652" y="428" fill="#444466" font-size="9" text-anchor="middle">Jul 01, 2025</text>

  <!-- Media / Spotify -->
  <rect x="747" y="327" width="137" height="110" rx="14" fill="rgba(22,22,48,0.85)" stroke="rgba(139,92,246,0.28)" stroke-width="1" filter="url(#shadow)"/>
  <text x="761" y="348" fill="rgba(139,92,246,0.75)" font-size="8.5" font-weight="700" letter-spacing="0.07em">🎵  MEDIA</text>
  <rect x="761" y="356" width="42" height="42" rx="10" fill="linear-gradient(135deg,#1db954,#1ed760)"/>
  <rect x="761" y="356" width="42" height="42" rx="10" fill="#1db954"/>
  <text x="782" y="383" font-size="20" text-anchor="middle">🎵</text>
  <text x="761" y="412" fill="#e0e0ff" font-size="10" font-weight="600">Blinding Lights</text>
  <text x="761" y="425" fill="#888899" font-size="9">The Weeknd · Spotify</text>
  <!-- play/skip controls -->
  <text x="761" y="438" fill="#666688" font-size="11">⏮  ⏸  ⏭</text>

  <!-- Bottom fade gradient -->
  <defs>
    <linearGradient id="bottomFade" x1="0%" y1="70%" x2="0%" y2="100%">
      <stop offset="0%" stop-color="#16162a" stop-opacity="0"/>
      <stop offset="100%" stop-color="#16162a" stop-opacity="0.5"/>
    </linearGradient>
  </defs>
  <rect x="0" y="350" width="900" height="150" rx="0" fill="url(#bottomFade)"/>
  <rect x="0" y="480" width="900" height="20" rx="0" fill="#16162a" opacity="0.8"/>
</svg>
